<svg width="24" height="18" viewBox="0 0 24 18" fill="none" xmlns="http://www.w3.org/2000/svg">
<path d="M0.857195 8H23.1429C23.6162 8 24 8.44774 24 9C24 9.55226 23.6162 10 23.1429 10H0.857147C0.383778 10 0 9.55226 0 9C4.57764e-05 8.44774 0.383778 8 0.857195 8Z" fill="#1F273E"/>
<path d="M23.1429 2H0.857147C0.383778 2 0 1.55226 0 1C0 0.447738 0.383778 0 0.857147 0H23.1429C23.6162 5.41008e-05 24 0.447738 24 1C24 1.55226 23.6162 2 23.1429 2Z" fill="#1F273E"/>
<path d="M0.857195 16H23.1429C23.6162 16 24 16.4477 24 17C24 17.5523 23.6162 18 23.1429 18H0.857147C0.383778 18 0 17.5523 0 17C0 16.4477 0.383778 16 0.857195 16Z" fill="#1F273E"/>
</svg>
