<svg width="24" height="24" viewBox="0 0 24 24" fill="none" xmlns="http://www.w3.org/2000/svg">
<g clip-path="url(#clip0)">
<path d="M16.1368 18.0164L13.7584 17.0789C13.1873 16.8534 12.5534 16.9009 12.0267 17.205L9.77321 18.5061C7.41234 16.3827 5.76926 13.5509 5.11337 10.435L7.37915 9.12686C7.90579 8.8228 8.26393 8.2976 8.35419 7.69027L8.7263 5.18107C8.87179 4.17443 8.24746 3.22033 7.26221 2.95634L5.59116 2.50858C4.49967 2.21611 3.34841 2.88079 3.12355 3.99041C1.42518 12.3766 6.25731 20.7319 14.3595 23.4516C15.4329 23.8117 16.5841 23.147 16.8766 22.0555L17.3243 20.3845C17.5954 19.4115 17.0813 18.3937 16.1368 18.0164Z" fill="#DC1E33"/>
<path d="M12.7528 6.95952C12.2188 6.71657 11.5967 7.04201 11.4451 7.60764C11.3185 8.08012 11.5696 8.55393 12.014 8.7586C13.8662 9.61864 14.9849 11.566 14.8102 13.6018C14.7653 14.089 15.0501 14.5433 15.5226 14.6699C16.0882 14.8215 16.6811 14.4455 16.7444 13.8633C17.0407 10.9471 15.4283 8.15427 12.7528 6.95952ZM13.751 3.15442C13.2147 2.94653 12.6095 3.26222 12.4615 3.81455C12.3313 4.30033 12.5903 4.79767 13.057 4.97264C16.9494 6.44354 19.278 10.4767 18.6056 14.5831C18.522 15.0814 18.8232 15.5544 19.309 15.6845C19.868 15.8343 20.4373 15.4662 20.5321 14.8996C21.3551 9.885 18.512 4.95076 13.751 3.15442Z" fill="#DC1E33"/>
</g>
<defs>
<clipPath id="clip0">
<rect width="24" height="24" fill="white"/>
</clipPath>
</defs>
</svg>
