<svg width="13" height="13" viewBox="0 0 13 13" fill="none" xmlns="http://www.w3.org/2000/svg">
<path d="M0.821205 8.6296C0.430773 8.6296 0.111328 8.94905 0.111328 9.33948V11.4691C0.111328 12.25 0.750217 12.8889 1.53108 12.8889H3.66071C4.05114 12.8889 4.37059 12.5694 4.37059 12.179C4.37059 11.7886 4.05114 11.4691 3.66071 11.4691H2.24096C1.85053 11.4691 1.53108 11.1497 1.53108 10.7592V9.33948C1.53108 8.94905 1.21164 8.6296 0.821205 8.6296ZM1.53108 2.24071C1.53108 1.85028 1.85053 1.53084 2.24096 1.53084H3.66071C4.05114 1.53084 4.37059 1.21139 4.37059 0.820961C4.37059 0.430528 4.05114 0.111084 3.66071 0.111084H1.53108C0.750217 0.111084 0.111328 0.749973 0.111328 1.53084V3.66047C0.111328 4.0509 0.430773 4.37034 0.821205 4.37034C1.21164 4.37034 1.53108 4.0509 1.53108 3.66047V2.24071ZM11.4694 0.111084H9.33972C8.94929 0.111084 8.62985 0.430528 8.62985 0.820961C8.62985 1.21139 8.94929 1.53084 9.33972 1.53084H10.7595C11.1499 1.53084 11.4694 1.85028 11.4694 2.24071V3.66047C11.4694 4.0509 11.7888 4.37034 12.1792 4.37034C12.5697 4.37034 12.8891 4.0509 12.8891 3.66047V1.53084C12.8891 0.749973 12.2502 0.111084 11.4694 0.111084ZM11.4694 10.7592C11.4694 11.1497 11.1499 11.4691 10.7595 11.4691H9.33972C8.94929 11.4691 8.62985 11.7886 8.62985 12.179C8.62985 12.5694 8.94929 12.8889 9.33972 12.8889H11.4694C12.2502 12.8889 12.8891 12.25 12.8891 11.4691V9.33948C12.8891 8.94905 12.5697 8.6296 12.1792 8.6296C11.7888 8.6296 11.4694 8.94905 11.4694 9.33948V10.7592ZM6.50022 3.66047C4.93139 3.66047 3.66071 4.93115 3.66071 6.49997C3.66071 8.0688 4.93139 9.33948 6.50022 9.33948C8.06904 9.33948 9.33972 8.0688 9.33972 6.49997C9.33972 4.93115 8.06904 3.66047 6.50022 3.66047ZM6.50022 7.91973C5.71935 7.91973 5.08046 7.28084 5.08046 6.49997C5.08046 5.71911 5.71935 5.08022 6.50022 5.08022C7.28108 5.08022 7.91997 5.71911 7.91997 6.49997C7.91997 7.28084 7.28108 7.91973 6.50022 7.91973Z" fill="#1F273E"/>
</svg>
