<svg width="22" height="22" viewBox="0 0 22 22" fill="none" xmlns="http://www.w3.org/2000/svg">
<path d="M11.0002 3.92904L8.87884 6.05036C8.48993 6.43927 8.48993 7.07567 8.87884 7.46458C9.26774 7.85349 9.90414 7.85349 10.293 7.46458L12.4144 5.34326C13.5811 4.17653 15.4903 4.17653 16.657 5.34326C17.8237 6.50998 17.8237 8.41917 16.657 9.5859L14.5357 11.7072C14.1468 12.0961 14.1468 12.7325 14.5357 13.1214C14.9246 13.5103 15.561 13.5103 15.9499 13.1214L18.0712 11.0001C20.0228 9.0485 20.0228 5.88066 18.0712 3.92904C16.1196 1.97743 12.9518 1.97743 11.0002 3.92904ZM8.17173 13.8285C8.56064 14.2174 9.19703 14.2174 9.58594 13.8285L13.8286 9.5859C14.2175 9.19699 14.2175 8.56059 13.8286 8.17168C13.4397 7.78277 12.8033 7.78277 12.4144 8.17168L8.17173 12.4143C7.78282 12.8032 7.78282 13.4396 8.17173 13.8285ZM11.7073 14.5356L9.58594 16.657C8.41922 17.8237 6.51003 17.8237 5.3433 16.657C4.17658 15.4902 4.17658 13.5811 5.3433 12.4143L7.46462 10.293C7.85353 9.9041 7.85353 9.2677 7.46462 8.87879C7.07571 8.48988 6.43932 8.48988 6.05041 8.87879L3.92909 11.0001C1.97747 12.9517 1.97747 16.1196 3.92909 18.0712C5.8807 20.0228 9.04854 20.0228 11.0002 18.0712L13.1215 15.9499C13.5104 15.5609 13.5104 14.9246 13.1215 14.5356C12.7326 14.1467 12.0962 14.1467 11.7073 14.5356Z" fill="#323232"/>
</svg>
