<svg width="18" height="16" viewBox="0 0 18 16" fill="none" xmlns="http://www.w3.org/2000/svg">
<path d="M13.3002 5.59988C12.9102 5.20988 12.2902 5.20988 11.9002 5.59988L10.0002 7.49988L10.0002 1.58987C10.0002 1.03987 9.55024 0.589872 9.00024 0.589872C8.45024 0.589872 8.00024 1.03987 8.00024 1.58987L8.00024 7.49988L6.10025 5.59988C5.71024 5.20988 5.09025 5.20988 4.70025 5.59988C4.31025 5.98988 4.31025 6.60988 4.70025 6.99988L8.29024 10.5899C8.68024 10.9799 9.31024 10.9799 9.70024 10.5899L13.3002 6.99988C13.6902 6.60988 13.6902 5.98988 13.3002 5.59988ZM2.00024 13.4999L2.00024 10.9999C2.00024 10.4499 1.55024 9.99987 1.00024 9.99987C0.450246 9.99987 0.000244783 10.4499 0.000244758 10.9999L0.000244649 13.4999C0.000244601 14.5999 0.900244 15.4999 2.00024 15.4999L16.0002 15.4999C17.1002 15.4999 18.0002 14.5999 18.0002 13.4999L18.0002 10.9999C18.0002 10.4499 17.5502 9.99987 17.0002 9.99987C16.4502 9.99987 16.0002 10.4499 16.0002 10.9999L16.0002 13.4999L2.00024 13.4999Z" fill="#323232"/>
</svg>
