<svg width="23" height="23" viewBox="0 0 23 23" fill="none" xmlns="http://www.w3.org/2000/svg">
<path d="M5.82099 13.6296C5.43056 13.6296 5.11111 13.949 5.11111 14.3395V16.4691C5.11111 17.25 5.75 17.8889 6.53087 17.8889H8.6605C9.05093 17.8889 9.37037 17.5694 9.37037 17.179C9.37037 16.7886 9.05093 16.4691 8.6605 16.4691H7.24074C6.85031 16.4691 6.53087 16.1497 6.53087 15.7592V14.3395C6.53087 13.949 6.21142 13.6296 5.82099 13.6296ZM6.53087 7.24071C6.53087 6.85028 6.85031 6.53084 7.24074 6.53084H8.6605C9.05093 6.53084 9.37037 6.21139 9.37037 5.82096C9.37037 5.43053 9.05093 5.11108 8.6605 5.11108H6.53087C5.75 5.11108 5.11111 5.74997 5.11111 6.53084V8.66047C5.11111 9.0509 5.43056 9.37034 5.82099 9.37034C6.21142 9.37034 6.53087 9.0509 6.53087 8.66047V7.24071ZM16.4691 5.11108H14.3395C13.9491 5.11108 13.6296 5.43053 13.6296 5.82096C13.6296 6.21139 13.9491 6.53084 14.3395 6.53084H15.7593C16.1497 6.53084 16.4691 6.85028 16.4691 7.24071V8.66047C16.4691 9.0509 16.7886 9.37034 17.179 9.37034C17.5694 9.37034 17.8889 9.0509 17.8889 8.66047V6.53084C17.8889 5.74997 17.25 5.11108 16.4691 5.11108ZM16.4691 15.7592C16.4691 16.1497 16.1497 16.4691 15.7593 16.4691H14.3395C13.9491 16.4691 13.6296 16.7886 13.6296 17.179C13.6296 17.5694 13.9491 17.8889 14.3395 17.8889H16.4691C17.25 17.8889 17.8889 17.25 17.8889 16.4691V14.3395C17.8889 13.949 17.5694 13.6296 17.179 13.6296C16.7886 13.6296 16.4691 13.949 16.4691 14.3395V15.7592ZM11.5 8.66047C9.93118 8.66047 8.6605 9.93115 8.6605 11.5C8.6605 13.0688 9.93118 14.3395 11.5 14.3395C13.0688 14.3395 14.3395 13.0688 14.3395 11.5C14.3395 9.93115 13.0688 8.66047 11.5 8.66047ZM11.5 12.9197C10.7191 12.9197 10.0803 12.2808 10.0803 11.5C10.0803 10.7191 10.7191 10.0802 11.5 10.0802C12.2809 10.0802 12.9198 10.7191 12.9198 11.5C12.9198 12.2808 12.2809 12.9197 11.5 12.9197Z" fill="#1F273E"/>
</svg>
