<svg width="20" height="20" viewBox="0 0 20 20" fill="none" xmlns="http://www.w3.org/2000/svg">
<path fill-rule="evenodd" clip-rule="evenodd" d="M0.480564 2.24594C0.0114536 3.14902 0.0114536 4.33546 0.0114536 6.70833V13.2917C0.0114536 15.6645 0.0114536 16.851 0.480564 17.7541C0.875879 18.5151 1.49638 19.1356 2.25739 19.5309C3.16047 20 4.34691 20 6.71979 20H13.3031C15.676 20 16.8624 20 17.7655 19.5309C18.5265 19.1356 19.147 18.5151 19.5423 17.7541C20.0115 16.851 20.0115 15.6645 20.0115 13.2917V6.70833C20.0115 4.33546 20.0115 3.14902 19.5423 2.24594C19.147 1.48493 18.5265 0.864425 17.7655 0.469111C16.8624 0 15.676 0 13.3031 0H6.71979C4.34691 0 3.16047 0 2.25739 0.469111C1.49638 0.864425 0.875879 1.48493 0.480564 2.24594ZM7.0018 2.77122C7.77754 2.73592 8.02541 2.72728 10.0005 2.72728H9.99823C11.9739 2.72728 12.2209 2.73592 12.9966 2.77122C13.7708 2.80668 14.2996 2.92925 14.7632 3.1091C15.242 3.29471 15.6465 3.54319 16.0511 3.94774C16.4556 4.35198 16.7041 4.75774 16.8904 5.23607C17.0692 5.6985 17.1919 6.22698 17.2283 7.00122C17.2632 7.77698 17.2722 8.02486 17.2722 10C17.2722 11.9752 17.2632 12.2224 17.2283 12.9982C17.1919 13.7721 17.0692 14.3008 16.8904 14.7633C16.7041 15.2415 16.4556 15.6473 16.0511 16.0515C15.647 16.4561 15.2419 16.7052 14.7637 16.8909C14.301 17.0708 13.7719 17.1933 12.9977 17.2288C12.2219 17.2641 11.9748 17.2727 9.99959 17.2727C8.02465 17.2727 7.77693 17.2641 7.0012 17.2288C6.22713 17.1933 5.69851 17.0708 5.23579 16.8909C4.75778 16.7052 4.35203 16.4561 3.94795 16.0515C3.54357 15.6473 3.2951 15.2415 3.10919 14.7632C2.9295 14.3008 2.80693 13.7723 2.77132 12.998C2.73617 12.2223 2.72739 11.9752 2.72739 10C2.72739 8.02486 2.73648 7.77683 2.77117 7.00107C2.80602 6.22713 2.92874 5.6985 3.10904 5.23592C3.2954 4.75774 3.54388 4.35198 3.94841 3.94774C4.35264 3.54335 4.75838 3.29486 5.2367 3.1091C5.69911 2.92925 6.22758 2.80668 7.0018 2.77122ZM9.75811 4.03782C9.61105 4.03775 9.47477 4.03769 9.34809 4.03789V4.03607C7.99268 4.03759 7.73269 4.04668 7.0618 4.07698C6.35273 4.10956 5.96774 4.22774 5.71139 4.32774C5.372 4.45986 5.12959 4.61744 4.87505 4.87198C4.62051 5.12653 4.46264 5.36895 4.33082 5.70834C4.23128 5.96471 4.1128 6.34956 4.08038 7.05865C4.04553 7.82531 4.03856 8.05441 4.03856 9.99653C4.03856 11.9386 4.04553 12.169 4.08038 12.9356C4.11265 13.6447 4.23128 14.0296 4.33082 14.2856C4.46294 14.6252 4.62051 14.867 4.87505 15.1215C5.12959 15.3761 5.372 15.5336 5.71139 15.6655C5.96789 15.765 6.35273 15.8835 7.0618 15.9162C7.82844 15.9511 8.05859 15.9586 10.0005 15.9586C11.9423 15.9586 12.1726 15.9511 12.9392 15.9162C13.6483 15.8838 14.0334 15.7656 14.2895 15.6656C14.629 15.5338 14.8707 15.3762 15.1252 15.1217C15.3797 14.8673 15.5376 14.6256 15.6694 14.2862C15.769 14.0302 15.8874 13.6453 15.9199 12.9362C15.9547 12.1696 15.9623 11.9393 15.9623 9.99834C15.9623 8.05744 15.9547 7.82713 15.9199 7.06047C15.8876 6.35138 15.769 5.96653 15.6694 5.71047C15.5373 5.37107 15.3797 5.12865 15.1252 4.8741C14.8708 4.61956 14.6288 4.46198 14.2895 4.33016C14.0331 4.23062 13.6483 4.11213 12.9392 4.07971C12.1724 4.04486 11.9423 4.03789 10.0005 4.03789C9.91657 4.03789 9.83584 4.03785 9.75811 4.03782ZM13.0098 6.11789C13.0098 5.63592 13.4007 5.24547 13.8825 5.24547V5.24516C14.3643 5.24516 14.7552 5.63607 14.7552 6.11789C14.7552 6.59971 14.3643 6.99062 13.8825 6.99062C13.4007 6.99062 13.0098 6.59971 13.0098 6.11789ZM6.26576 10C6.26576 7.93749 7.9379 6.26524 10.0003 6.26516C12.0629 6.26516 13.7346 7.93744 13.7346 10C13.7346 12.0626 12.063 13.7341 10.0005 13.7341C7.93799 13.7341 6.26576 12.0626 6.26576 10ZM12.4247 10C12.4247 8.66107 11.3392 7.57577 10.0005 7.57577C8.6616 7.57577 7.57633 8.66107 7.57633 10C7.57633 11.3388 8.6616 12.4243 10.0005 12.4243C11.3392 12.4243 12.4247 11.3388 12.4247 10Z" fill="white"/>
</svg>
