<svg width="300" height="34" viewBox="0 0 300 34" fill="none" xmlns="http://www.w3.org/2000/svg">
<path d="M24.5945 0.475468V5.84899H15.6599V33.6672H8.93479V5.84899H0V0.475468H24.5945ZM35.0761 5.84899V14.1706H46.3645V19.449H35.0761V28.2463H47.8057V33.6672H28.3512V0.428H47.8057V5.84899H35.0761ZM72.8421 33.6672L65.5885 22.4924L59.0077 33.6672H51.4178L61.9859 16.9286L51.2738 0.475468H59.0077L66.2612 11.6027L72.794 0.475468H80.3837L69.8637 17.1666L80.5758 33.6672H72.8421ZM113.25 33.6672H106.525L91.2976 10.8895V33.6672H84.5725V0.428H91.2976L106.525 23.2533V0.428H113.25V33.6672ZM134.299 34C131.161 34 128.279 33.271 125.653 31.8127C123.027 30.3545 120.945 28.3333 119.408 25.7496C117.871 23.1659 117.102 20.2416 117.102 16.9761C117.102 13.7428 117.871 10.8341 119.408 8.2504C120.945 5.66672 123.027 3.64554 125.653 2.18732C128.279 0.729102 131.161 0 134.299 0C137.47 0 140.36 0.729102 142.97 2.18732C145.58 3.64554 147.645 5.66672 149.167 8.2504C150.688 10.8341 151.448 13.7428 151.448 16.9761C151.448 20.2416 150.688 23.1659 149.167 25.7496C147.645 28.3333 145.572 30.3545 142.946 31.8127C140.32 33.271 137.438 34 134.299 34ZM134.299 28.0561C136.317 28.0561 138.094 27.6043 139.631 26.7009C141.169 25.7972 142.37 24.5053 143.234 22.8253C144.099 21.1451 144.531 19.1954 144.531 16.9761C144.531 14.757 144.099 12.8155 143.234 11.151C142.37 9.48678 141.169 8.21069 139.631 7.32304C138.094 6.43554 136.317 5.99156 134.299 5.99156C132.282 5.99156 130.497 6.43554 128.943 7.32304C127.39 8.21069 126.181 9.48678 125.317 11.151C124.452 12.8155 124.02 14.757 124.02 16.9761C124.02 19.1954 124.452 21.1451 125.317 22.8253C126.181 24.5053 127.39 25.7972 128.943 26.7009C130.497 27.6043 132.282 28.0561 134.299 28.0561ZM166.878 34C164.54 34 162.434 33.6038 160.561 32.8112C158.687 32.0187 157.206 30.8776 156.118 29.3874C155.029 27.8974 154.468 26.138 154.436 24.1091H161.642C161.738 25.4722 162.226 26.5502 163.107 27.3428C163.987 28.1353 165.196 28.5315 166.734 28.5315C168.303 28.5315 169.536 28.1591 170.432 27.4141C171.329 26.6691 171.777 25.6942 171.777 24.4895C171.777 23.5068 171.473 22.6984 170.865 22.0645C170.256 21.4303 169.496 20.931 168.583 20.5664C167.67 20.2017 166.413 19.7976 164.812 19.3539C162.634 18.7199 160.865 18.0938 159.504 17.4756C158.143 16.8573 156.974 15.9223 155.997 14.67C155.021 13.4176 154.532 11.7453 154.532 9.65323C154.532 7.68759 155.029 5.97574 156.022 4.51753C157.014 3.05916 158.407 1.94175 160.201 1.16502C161.994 0.388441 164.044 0 166.349 0C169.808 0 172.618 0.832112 174.78 2.49634C176.941 4.16087 178.134 6.48301 178.358 9.46289H170.961C170.897 8.32175 170.408 7.37857 169.496 6.63348C168.583 5.8884 167.374 5.51609 165.869 5.51609C164.556 5.51609 163.507 5.84899 162.722 6.51465C161.938 7.18032 161.546 8.14739 161.546 9.41542C161.546 10.3031 161.842 11.0401 162.434 11.6265C163.027 12.2132 163.763 12.6886 164.644 13.0532C165.525 13.4176 166.765 13.8378 168.367 14.3133C170.544 14.9472 172.322 15.5813 173.699 16.2154C175.076 16.8495 176.261 17.8005 177.253 19.0685C178.246 20.3367 178.743 22.0009 178.743 24.0616C178.743 25.8369 178.278 27.4853 177.349 29.007C176.421 30.5287 175.06 31.7413 173.266 32.6448C171.473 33.5483 169.343 34 166.878 34ZM206.229 0.475468V5.84899H197.294V33.6672H190.569V5.84899H181.634V0.475468H206.229ZM227.278 33.6672L219.881 20.7329H216.71V33.6672H209.985V0.475468H222.571C225.165 0.475468 227.374 0.927209 229.2 1.83068C231.025 2.73416 232.394 3.95472 233.307 5.49235C234.22 7.02984 234.676 8.74975 234.676 10.6518C234.676 12.8393 234.035 14.8125 232.754 16.572C231.474 18.3315 229.568 19.5441 227.038 20.2098L235.06 33.6672H227.278ZM216.71 15.7399H222.331C224.156 15.7399 225.517 15.3038 226.414 14.4321C227.31 13.5603 227.759 12.3478 227.759 10.7944C227.759 9.27271 227.31 8.09185 226.414 7.25168C225.517 6.4118 224.156 5.99156 222.331 5.99156H216.71V15.7399ZM255.197 34C252.058 34 249.176 33.271 246.55 31.8127C243.924 30.3545 241.843 28.3333 240.306 25.7496C238.769 23.1659 238 20.2416 238 16.9761C238 13.7428 238.769 10.8341 240.306 8.2504C241.843 5.66672 243.924 3.64554 246.55 2.18732C249.176 0.729102 252.058 0 255.197 0C258.367 0 261.257 0.729102 263.867 2.18732C266.477 3.64554 268.543 5.66672 270.064 8.2504C271.585 10.8341 272.346 13.7428 272.346 16.9761C272.346 20.2416 271.585 23.1659 270.064 25.7496C268.543 28.3333 266.469 30.3545 263.843 31.8127C261.217 33.271 258.335 34 255.197 34ZM255.197 28.0561C257.214 28.0561 258.992 27.6043 260.529 26.7009C262.066 25.7972 263.267 24.5053 264.132 22.8253C264.996 21.1451 265.428 19.1954 265.428 16.9761C265.428 14.757 264.996 12.8155 264.132 11.151C263.267 9.48678 262.066 8.21069 260.529 7.32304C258.992 6.43554 257.214 5.99156 255.197 5.99156C253.179 5.99156 251.394 6.43554 249.841 7.32304C248.288 8.21069 247.079 9.48678 246.214 11.151C245.349 12.8155 244.917 14.757 244.917 16.9761C244.917 19.1954 245.349 21.1451 246.214 22.8253C247.079 24.5053 248.288 25.7972 249.841 26.7009C251.394 27.6043 253.179 28.0561 255.197 28.0561ZM300 0.475468L288.664 22.112V33.6672H281.938V22.112L270.554 0.475468H278.144L285.349 15.6448L292.506 0.475468H300Z" fill="#1F273E"/>
</svg>
