<svg width="225" height="61" viewBox="0 0 225 61" fill="none" xmlns="http://www.w3.org/2000/svg">
<path d="M79.2853 21.8992V24.7142H74.6567V39.2872H71.1727V24.7142H66.5439V21.8992H79.2853ZM84.7154 24.7142V29.0736H90.5635V31.8388H84.7154V36.4473H91.3101V39.2872H81.2315V21.8744H91.3101V24.7142H84.7154ZM104.28 39.2872L100.523 33.4331L97.1134 39.2872H93.1814L98.6563 30.5184L93.1068 21.8992H97.1134L100.871 27.7284L104.256 21.8992H108.187L102.737 30.6431L108.287 39.2872H104.28ZM125.214 39.2872H121.73L113.841 27.3547V39.2872H110.357V21.8744H113.841L121.73 33.8317V21.8744H125.214V39.2872ZM136.119 39.4615C134.493 39.4615 133 39.0796 131.639 38.3157C130.279 37.5518 129.201 36.4929 128.404 35.1394C127.608 33.7859 127.21 32.254 127.21 30.5433C127.21 28.8495 127.608 27.3257 128.404 25.9722C129.201 24.6187 130.279 23.5599 131.639 22.796C133 22.0321 134.493 21.6501 136.119 21.6501C137.761 21.6501 139.259 22.0321 140.611 22.796C141.963 23.5599 143.033 24.6187 143.821 25.9722C144.609 27.3257 145.003 28.8495 145.003 30.5433C145.003 32.254 144.609 33.7859 143.821 35.1394C143.033 36.4929 141.959 37.5518 140.598 38.3157C139.238 39.0796 137.745 39.4615 136.119 39.4615ZM136.119 36.3477C137.164 36.3477 138.085 36.1111 138.881 35.6378C139.678 35.1644 140.3 34.4876 140.748 33.6075C141.196 32.7273 141.42 31.7059 141.42 30.5433C141.42 29.3808 141.196 28.3637 140.748 27.4918C140.3 26.6199 139.678 25.9514 138.881 25.4864C138.085 25.0215 137.164 24.7889 136.119 24.7889C135.074 24.7889 134.149 25.0215 133.344 25.4864C132.54 25.9514 131.913 26.6199 131.465 27.4918C131.017 28.3637 130.793 29.3808 130.793 30.5433C130.793 31.7059 131.017 32.7273 131.465 33.6075C131.913 34.4876 132.54 35.1644 133.344 35.6378C134.149 36.1111 135.074 36.3477 136.119 36.3477ZM152.996 39.4615C151.785 39.4615 150.694 39.254 149.724 38.8388C148.753 38.4236 147.986 37.8258 147.422 37.0451C146.858 36.2646 146.568 35.3429 146.551 34.28H150.284C150.334 34.9941 150.587 35.5589 151.043 35.974C151.499 36.3892 152.125 36.5968 152.922 36.5968C153.735 36.5968 154.373 36.4017 154.838 36.0114C155.302 35.6211 155.535 35.1104 155.535 34.4793C155.535 33.9645 155.377 33.541 155.062 33.2089C154.747 32.8767 154.353 32.6151 153.88 32.4242C153.407 32.2331 152.756 32.0214 151.926 31.789C150.798 31.4568 149.881 31.1288 149.176 30.805C148.471 30.4811 147.866 29.9913 147.36 29.3352C146.854 28.6791 146.601 27.8031 146.601 26.7071C146.601 25.6774 146.858 24.7806 147.372 24.0167C147.887 23.2527 148.608 22.6674 149.537 22.2605C150.466 21.8536 151.528 21.6501 152.723 21.6501C154.514 21.6501 155.97 22.0861 157.09 22.9579C158.21 23.8299 158.828 25.0464 158.944 26.6074H155.112C155.078 26.0096 154.825 25.5155 154.353 25.1252C153.88 24.7349 153.253 24.5398 152.474 24.5398C151.793 24.5398 151.25 24.7142 150.844 25.0629C150.437 25.4117 150.234 25.9183 150.234 26.5825C150.234 27.0476 150.388 27.4336 150.694 27.7408C151.001 28.0482 151.383 28.2973 151.839 28.4882C152.295 28.6791 152.938 28.8993 153.768 29.1484C154.896 29.4804 155.817 29.8127 156.53 30.1448C157.243 30.477 157.857 30.9752 158.372 31.6394C158.886 32.3038 159.143 33.1756 159.143 34.2552C159.143 35.1852 158.902 36.0487 158.421 36.8459C157.94 37.643 157.235 38.2783 156.306 38.7516C155.377 39.2249 154.274 39.4615 152.996 39.4615ZM173.382 21.8992V24.7142H168.754V39.2872H165.27V24.7142H160.641V21.8992H173.382ZM184.287 39.2872L180.455 32.5113H178.813V39.2872H175.329V21.8992H181.849C183.192 21.8992 184.337 22.1359 185.283 22.6092C186.228 23.0825 186.938 23.7219 187.411 24.5274C187.883 25.3328 188.12 26.2338 188.12 27.2302C188.12 28.3762 187.788 29.4099 187.124 30.3316C186.461 31.2533 185.474 31.8886 184.163 32.2373L188.319 39.2872H184.287ZM178.813 29.8957H181.724C182.67 29.8957 183.375 29.6673 183.839 29.2106C184.304 28.7539 184.536 28.1187 184.536 27.3049C184.536 26.5078 184.304 25.8892 183.839 25.449C183.375 25.0091 182.67 24.7889 181.724 24.7889H178.813V29.8957ZM198.751 39.4615C197.125 39.4615 195.632 39.0796 194.271 38.3157C192.911 37.5518 191.833 36.4929 191.036 35.1394C190.24 33.7859 189.842 32.254 189.842 30.5433C189.842 28.8495 190.24 27.3257 191.036 25.9722C191.833 24.6187 192.911 23.5599 194.271 22.796C195.632 22.0321 197.125 21.6501 198.751 21.6501C200.393 21.6501 201.891 22.0321 203.243 22.796C204.595 23.5599 205.665 24.6187 206.453 25.9722C207.241 27.3257 207.635 28.8495 207.635 30.5433C207.635 32.254 207.241 33.7859 206.453 35.1394C205.665 36.4929 204.591 37.5518 203.23 38.3157C201.87 39.0796 200.377 39.4615 198.751 39.4615ZM198.751 36.3477C199.796 36.3477 200.717 36.1111 201.513 35.6378C202.309 35.1644 202.932 34.4876 203.38 33.6075C203.827 32.7273 204.051 31.7059 204.051 30.5433C204.051 29.3808 203.827 28.3637 203.38 27.4918C202.932 26.6199 202.309 25.9514 201.513 25.4864C200.717 25.0215 199.796 24.7889 198.751 24.7889C197.706 24.7889 196.781 25.0215 195.976 25.4864C195.171 25.9514 194.545 26.6199 194.097 27.4918C193.649 28.3637 193.425 29.3808 193.425 30.5433C193.425 31.7059 193.649 32.7273 194.097 33.6075C194.545 34.4876 195.171 35.1644 195.976 35.6378C196.781 36.1111 197.706 36.3477 198.751 36.3477ZM221.962 21.8992L216.089 33.2338V39.2872H212.604V33.2338L206.707 21.8992H210.639L214.371 29.8459L218.079 21.8992H221.962Z" fill="#1F273E"/>
<path fill-rule="evenodd" clip-rule="evenodd" d="M31.8618 4.51099C45.15 4.51153 55.9219 15.2948 55.9219 28.5969H54.1199C54.1199 26.5782 53.871 24.7254 53.3694 22.8873C51.5776 21.9396 49.2089 21.2457 46.5824 20.7447C47.1427 23.3599 47.4585 25.7789 47.4585 28.5969H45.5325C45.5325 25.6407 45.1799 23.1502 44.5477 20.4011C42.5324 20.1008 40.4213 19.8966 38.3421 19.764C38.4949 21.2477 38.6176 22.7086 38.7017 24.1741H36.678C36.6045 22.6726 36.4967 21.1747 36.3613 19.6581C34.8002 19.59 33.2813 19.5591 31.8618 19.5544V17.5957C33.1881 17.6064 34.6337 17.645 36.1442 17.7208C35.2857 11.0752 33.6136 6.62034 31.8618 6.35014V4.51099ZM52.5737 20.4913C52.5353 20.3926 52.4963 20.294 52.4565 20.1952C50.1305 14.418 45.471 9.89205 39.6375 7.7138C42.4855 10.2487 44.766 14.1331 46.1135 18.8013C48.4414 19.2214 50.6563 19.7737 52.5737 20.4913ZM44.0315 18.4639C42.1841 12.6351 38.5672 7.72326 34.901 6.9172C36.2843 9.23731 37.4117 13.0909 38.0989 17.8385C40.0458 17.9754 42.0586 18.1776 44.0315 18.4639Z" fill="#DC1E33"/>
<path fill-rule="evenodd" clip-rule="evenodd" d="M27.8715 56.602C14.5833 56.6015 3.81152 45.8182 3.81152 32.5161H5.61348C5.61348 34.5348 5.86246 36.3877 6.36402 38.2257C8.15582 39.1733 10.5244 39.8673 13.1509 40.3684C12.5907 37.7531 12.2749 35.3341 12.2749 32.5161H14.2008C14.2008 35.4723 14.5536 37.9627 15.1857 40.7119C17.2009 41.0122 19.312 41.2164 21.3912 41.349C21.2384 39.8652 21.1157 38.4044 21.0316 36.9389H23.0554C23.1289 38.4404 23.2367 39.9383 23.372 41.455C24.9332 41.5229 26.4521 41.5539 27.8715 41.5585V43.5173C26.5452 43.5067 25.0996 43.468 23.5891 43.3922C24.4476 50.0378 26.1197 54.4927 27.8715 54.7629V56.602ZM7.15965 40.6218C7.19809 40.7204 7.23707 40.819 7.27684 40.9178C9.60285 46.695 14.2623 51.221 20.0958 53.3992C17.2479 50.8644 14.9674 46.9799 13.6198 42.3116C11.292 41.8916 9.07699 41.3394 7.15965 40.6218ZM15.7018 42.6492C17.5493 48.4779 21.1661 53.3898 24.8323 54.1958C23.4491 51.8757 22.3216 48.0221 21.6344 43.2746C19.6875 43.1375 17.6747 42.9355 15.7018 42.6492Z" fill="#DC1E33"/>
<path fill-rule="evenodd" clip-rule="evenodd" d="M24.8672 18.61C26.5033 17.9288 28.1992 17.6096 29.8665 17.6148V19.5552C28.4475 19.55 27.004 19.8214 25.6115 20.4012C21.39 22.1591 18.844 26.2477 18.8421 30.5559H16.9038C16.9058 25.4878 19.9008 20.678 24.8672 18.61Z" fill="#1F273E"/>
<path fill-rule="evenodd" clip-rule="evenodd" d="M5.57145 30.5559C5.57512 30.0878 5.63223 29.6366 5.73262 28.9323L12.7424 27.5946C13.1793 25.0808 14.1657 22.6875 15.6259 20.5962L11.6473 14.7301C12.4911 13.6309 12.8411 13.2626 13.9691 12.3495L19.8384 16.3652C21.92 14.8987 24.3157 13.9012 26.8221 13.4571L28.1148 6.45916C28.8683 6.37712 29.3667 6.34099 29.8667 6.35022V4.50982C28.7668 4.50763 27.661 4.57567 26.5552 4.7169L25.1796 11.8824C23.316 12.35 21.5259 13.0955 19.8807 14.0888L13.834 10.014C12.1051 11.3616 10.5756 12.9087 9.26418 14.6063L13.3526 20.6461C12.3643 22.2962 11.6261 24.0871 11.1651 25.9549L4.0116 27.3533C3.87965 28.4112 3.81223 29.4806 3.81152 30.5559H5.57145Z" fill="#1F273E"/>
<path fill-rule="evenodd" clip-rule="evenodd" d="M34.866 42.5018C33.2301 43.183 31.534 43.5022 29.8667 43.497V41.5567C31.2858 41.5619 32.7294 41.2904 34.1217 40.7107C38.3433 38.9528 40.8894 34.8642 40.8912 30.5559H42.8294C42.8275 35.6241 39.8325 40.4338 34.866 42.5018Z" fill="#1F273E"/>
<path fill-rule="evenodd" clip-rule="evenodd" d="M54.1619 30.5559C54.1583 31.024 54.1012 31.4753 54.0008 32.1795L46.9911 33.5172C46.554 36.0311 45.5677 38.4244 44.1075 40.5156L48.0861 46.3817C47.2423 47.481 46.8923 47.8493 45.7643 48.7624L39.8951 44.7467C37.8133 46.213 35.4177 47.2106 32.9112 47.6548L31.6187 54.6527C30.8651 54.7347 30.3667 54.7709 29.8667 54.7616V56.6021C30.9665 56.6042 32.0724 56.5362 33.1782 56.395L34.5538 49.2294C36.4174 48.7619 38.2075 48.0163 39.8526 47.0231L45.8994 51.0979C47.6283 49.7503 49.1579 48.2031 50.4692 46.5055L46.3808 40.4657C47.3691 38.8155 48.1072 37.0248 48.5683 35.1569L55.7218 33.7585C55.8537 32.7007 55.9212 31.6312 55.9219 30.5559H54.1619Z" fill="#1F273E"/>
<path fill-rule="evenodd" clip-rule="evenodd" d="M33.1302 36.939V34.9019H30.652V24.1741H26.7702V26.2112H28.617V34.9019H26.1387V36.939C28.4692 36.939 30.7997 36.939 33.1302 36.939Z" fill="#1F273E"/>
</svg>
