<svg width="20" height="20" viewBox="0 0 20 20" fill="none" xmlns="http://www.w3.org/2000/svg">
<path fill-rule="evenodd" clip-rule="evenodd" d="M0.469111 2.24594C0 3.14902 0 4.33546 0 6.70833V13.2917C0 15.6645 0 16.851 0.469111 17.7541C0.864425 18.5151 1.48493 19.1356 2.24594 19.5309C3.14902 20 4.33546 20 6.70833 20H13.2917C15.6645 20 16.851 20 17.7541 19.5309C18.5151 19.1356 19.1356 18.5151 19.5309 17.7541C20 16.851 20 15.6645 20 13.2917V6.70833C20 4.33546 20 3.14902 19.5309 2.24594C19.1356 1.48493 18.5151 0.864425 17.7541 0.469111C16.851 0 15.6645 0 13.2917 0H6.70833C4.33546 0 3.14902 0 2.24594 0.469111C1.48493 0.864425 0.864425 1.48493 0.469111 2.24594ZM3.23033 9.3217L15.2713 4.67749C15.8212 4.42789 16.352 4.80966 16.1421 5.65133L14.0916 15.314C13.9485 16.0007 13.5334 16.165 12.9586 15.8479L9.83489 13.5399L9.77416 13.599C9.06526 14.2882 8.44106 14.8951 8.33345 15.0004L8.32193 15.0116C8.15319 15.1766 8.01388 15.3128 7.70834 15.3128C7.39117 15.3128 7.36471 15.219 7.30098 14.993C7.28336 14.9305 7.26288 14.8579 7.23262 14.7744L6.08359 11.2515L3.08054 10.3142C2.4134 10.1098 2.40852 9.65142 3.23033 9.3217ZM13.3238 6.76562L6.55488 11.0362L7.69551 14.5331L7.92118 12.1261L13.7171 6.89668C13.9715 6.67087 13.6617 6.56069 13.3238 6.76562Z" fill="white"/>
</svg>
