<svg width="20" height="20" viewBox="0 0 20 20" fill="none" xmlns="http://www.w3.org/2000/svg">
<path fill-rule="evenodd" clip-rule="evenodd" d="M0.469111 2.24594C0 3.14902 0 4.33546 0 6.70833V13.2917C0 15.6645 0 16.851 0.469111 17.7541C0.864425 18.5151 1.48493 19.1356 2.24594 19.5309C3.14902 20 4.33546 20 6.70833 20H13.2917C15.6645 20 16.851 20 17.7541 19.5309C18.5151 19.1356 19.1356 18.5151 19.5309 17.7541C20 16.851 20 15.6645 20 13.2917V6.70833C20 4.33546 20 3.14902 19.5309 2.24594C19.1356 1.48493 18.5151 0.864425 17.7541 0.469111C16.851 0 15.6645 0 13.2917 0H6.70833C4.33546 0 3.14902 0 2.24594 0.469111C1.48493 0.864425 0.864425 1.48493 0.469111 2.24594ZM15.5576 7.93813C15.5576 7.81321 15.556 7.68834 15.5511 7.56343C16.0685 7.16028 16.5164 6.65501 16.8722 6.08152C16.3979 6.30865 15.8865 6.46184 15.3503 6.52997C15.8983 6.17793 16.3177 5.61592 16.5163 4.9459C16.0039 5.27523 15.4375 5.5137 14.833 5.63861C14.3501 5.08216 13.6621 4.73575 12.9004 4.73575C11.4372 4.73575 10.2513 6.01902 10.2513 7.60321C10.2513 7.82466 10.2745 8.04605 10.3197 8.25614C8.11847 8.1369 6.16595 6.99558 4.85997 5.25809C4.63064 5.68395 4.50037 6.17796 4.50037 6.70035C4.50037 7.69401 4.96818 8.57409 5.67984 9.0908C5.24542 9.07376 4.83629 8.94324 4.47885 8.73315V8.76725C4.47885 10.1584 5.39237 11.3167 6.60522 11.5779C6.38128 11.646 6.14765 11.68 5.90702 11.68C5.73637 11.68 5.5695 11.663 5.40746 11.6289C5.74499 12.7645 6.72366 13.5992 7.88268 13.6162C6.97614 14.3884 5.83327 14.8485 4.59243 14.8485C4.37872 14.8485 4.16823 14.8314 3.96097 14.8087C5.13345 15.6206 6.52502 16.0976 8.02156 16.0976C12.8934 16.0976 15.5576 11.7254 15.5576 7.93813Z" fill="white"/>
</svg>
