<svg width="20" height="20" viewBox="0 0 20 20" fill="none" xmlns="http://www.w3.org/2000/svg">
<path fill-rule="evenodd" clip-rule="evenodd" d="M0.469111 2.24594C0 3.14902 0 4.33546 0 6.70833V13.2917C0 15.6645 0 16.851 0.469111 17.7541C0.864425 18.5151 1.48493 19.1356 2.24594 19.5309C3.14902 20 4.33546 20 6.70833 20H13.2917C15.6645 20 16.851 20 17.7541 19.5309C18.5151 19.1356 19.1356 18.5151 19.5309 17.7541C20 16.851 20 15.6645 20 13.2917V6.70833C20 4.33546 20 3.14902 19.5309 2.24594C19.1356 1.48493 18.5151 0.864425 17.7541 0.469111C16.851 0 15.6645 0 13.2917 0H6.70833C4.33546 0 3.14902 0 2.24594 0.469111C1.48493 0.864425 0.864425 1.48493 0.469111 2.24594ZM15.2605 4.82474C14.0006 3.56396 12.351 2.83394 10.5807 2.74694L10.2251 2.73814C6.30158 2.73814 3.10832 5.92964 3.10674 9.8524C3.10623 11.1064 3.43401 12.3303 4.05694 13.4093L3.04706 17.0961L6.82058 16.1067C7.86028 16.6736 9.03087 16.9723 10.2222 16.9727H10.2252C14.1483 16.9727 17.3418 13.7809 17.3434 9.85805C17.3441 7.95706 16.6044 6.1695 15.2605 4.82474ZM7.21147 14.9469L6.99539 14.8187L4.75616 15.4058L5.35385 13.2237L5.21318 12.9999C4.62093 12.0584 4.30815 10.9702 4.3086 9.85281C4.3099 6.59237 6.96402 3.9398 10.2275 3.9398C11.8078 3.94032 13.2933 4.55626 14.4103 5.67407C15.5273 6.79181 16.1422 8.27756 16.1415 9.85764C16.1402 13.1183 13.4861 15.7712 10.2252 15.7712H10.2228C9.1611 15.7707 8.11985 15.4857 7.21147 14.9469ZM13.5677 11.3898C13.6917 11.4497 13.7755 11.4902 13.8113 11.5499C13.8558 11.624 13.8558 11.98 13.7076 12.3953C13.5594 12.8105 12.8488 13.1895 12.507 13.2406C12.2006 13.2864 11.8129 13.3054 11.3868 13.1701C11.1285 13.0882 10.7972 12.9788 10.3728 12.7957C8.70545 12.076 7.57863 10.4608 7.36563 10.1555C7.3507 10.1341 7.34026 10.1191 7.33444 10.1113L7.33288 10.1092C7.23834 9.98312 6.60816 9.14246 6.60816 8.27232C6.60816 7.45336 7.0107 7.02412 7.19592 6.8266C7.20859 6.8131 7.22024 6.80067 7.23068 6.78928C7.39371 6.61127 7.5864 6.56681 7.70499 6.56681C7.82354 6.56681 7.94223 6.56794 8.04585 6.57307C8.05863 6.57371 8.07193 6.57363 8.08567 6.57355C8.18932 6.57295 8.31856 6.5722 8.44606 6.87823C8.49506 6.99594 8.56676 7.17041 8.64239 7.35445C8.79547 7.72696 8.96466 8.13867 8.99444 8.19826C9.03888 8.28725 9.06854 8.39102 9.00926 8.50969C9.00034 8.52752 8.99209 8.54436 8.98421 8.56044C8.9397 8.65127 8.90695 8.71809 8.8314 8.80626C8.80176 8.84086 8.77113 8.87814 8.7405 8.91542C8.67922 8.99 8.61793 9.0646 8.56457 9.11772C8.47554 9.20634 8.38288 9.30258 8.4866 9.48053C8.59036 9.65851 8.94732 10.2406 9.47607 10.712C10.0445 11.2188 10.5386 11.433 10.7889 11.5415C10.8378 11.5627 10.8774 11.5799 10.9064 11.5944C11.0842 11.6834 11.188 11.6685 11.2917 11.5499C11.3955 11.4312 11.7364 11.0308 11.8549 10.8528C11.9735 10.6749 12.0921 10.7046 12.2551 10.7638C12.4181 10.8232 13.2926 11.2533 13.4704 11.3423C13.5051 11.3596 13.5376 11.3753 13.5677 11.3898Z" fill="white"/>
</svg>
