<svg width="20" height="20" viewBox="0 0 20 20" fill="none" xmlns="http://www.w3.org/2000/svg">
<path fill-rule="evenodd" clip-rule="evenodd" d="M0.469111 2.24594C0 3.14902 0 4.33546 0 6.70833V13.2917C0 15.6645 0 16.851 0.469111 17.7541C0.864425 18.5151 1.48493 19.1356 2.24594 19.5309C3.14902 20 4.33546 20 6.70833 20H13.2917C15.6645 20 16.851 20 17.7541 19.5309C18.5151 19.1356 19.1356 18.5151 19.5309 17.7541C20 16.851 20 15.6645 20 13.2917V6.70833C20 4.33546 20 3.14902 19.5309 2.24594C19.1356 1.48493 18.5151 0.864425 17.7541 0.469111C16.851 0 15.6645 0 13.2917 0H6.70833C4.33546 0 3.14902 0 2.24594 0.469111C1.48493 0.864425 0.864425 1.48493 0.469111 2.24594ZM17.191 6.22665C17.0181 5.58415 16.5115 5.07757 15.869 4.90458C14.6952 4.58333 9.99997 4.58333 9.99997 4.58333C9.99997 4.58333 5.30477 4.58333 4.13096 4.89223C3.50082 5.06521 2.98188 5.58415 2.80889 6.22665C2.5 7.40045 2.5 9.83455 2.5 9.83455C2.5 9.83455 2.5 12.281 2.80889 13.4424C2.98188 14.0849 3.48846 14.5915 4.13096 14.7645C5.31712 15.0858 9.99997 15.0858 9.99997 15.0858C9.99997 15.0858 14.6952 15.0858 15.869 14.7769C16.5115 14.6039 17.0181 14.0973 17.191 13.4548C17.4999 12.281 17.4999 9.8469 17.4999 9.8469C17.4999 9.8469 17.5123 7.40045 17.191 6.22665ZM8.50491 11.9975L12.4093 9.74876L8.50491 7.5V11.9975Z" fill="white"/>
</svg>
